<svg class="row-cell-svg" id="row--1-cell" viewBox="0 0 1073 1430" xmlns="http://www.w3.org/2000/svg" xmlns:xlink="http://www.w3.org/1999/xlink"><defs><style type="text/css">@import url('https://fonts.googleapis.com/css2?family=Google+Sans:ital,opsz,wght@0,17..18,400..700;1,17..18,400..700&amp;display=swap');</style></defs><rect width="1073" height="1430" fill="#222222"></rect><g transform="translate(32.19,71.5)"><path d="M3.0814762926622703,207.1102252350228Q3.0360515887710213,217.8490502818089,14.909708070950002,211.54146575239486L228.63552475017164,98.00494422294246Q240.50918123235064,91.69735969352843,240.67312223347625,87.23849613802047L243.62406025373738,6.978952138877081Q243.788001254863,2.5200885833691107,231.79582847544964,2.5477116215049977L15.936718446009365,3.0449263079509663Q3.944545666596004,3.072549346086854,3.8991209627047545,13.811374392872956Z" stroke="#222222" stroke-width="2.01724" fill="url(#jhpkw)"></path><path d="M265.8001764040017,2.709471416660343Q252.3078815151274,2.710742152731585,252.21734449101754,7.171583273933144L250.5876780570399,87.4667234555612Q250.49714103293005,91.92756457676276,260.10638577487276,99.49024646951807L433.07279112984185,235.61852053911392Q442.6820358717846,243.18120243186925,446.655623042826,231.1564086818411L518.1801921215718,14.71012118133488Q522.1537792926133,2.6853274313067437,508.661484403739,2.6865981673779857Z" stroke="#222222" stroke-width="2.01724" fill="url(#jhpkw)"></path><path d="M254.4329481876009,104.51841427964752Q244.69766620676407,96.96450942331579,232.70990132241957,103.24521991653415L16.930133404218342,216.29800879446464Q4.9423685198738205,222.57871928768301,4.942243543879947,225.8931074293458L4.939993975990235,285.55209397927655Q4.939868999996362,288.8664821209394,16.811186336295926,295.002436724616L230.49489838968807,405.4496195907954Q242.36621572598764,411.58557419447203,252.40234014163497,404.41123151443196L433.05257962328693,275.27306327371036Q443.0887040389343,268.09872059367024,442.90443412816256,267.09591489148426L439.5875757342724,249.04541225213617Q439.4033058235007,248.0426065499502,429.66802384266384,240.48870169361845Z" stroke="#222222" stroke-width="2.01724" fill="url(#dvyjz)"></path><path d="M547.6355781893761,3.2020567873281407Q530.2467414028187,3.1594880886611865,526.1983622289014,15.340589997119924L453.32753709839096,234.60042434937714Q449.2791579244737,246.7815262578359,449.45896383042805,247.79065565243332L452.6954701376063,265.9549847551869Q452.8752760435607,266.96411414978434,480.4692608600829,273.1866487730497L977.160987557483,385.1922719918263Q1004.7549723740053,391.41480661509166,1004.6985173150206,380.2187594564965L1003.6823262532955,178.68991060178357Q1003.6258711943109,167.4938634431884,997.3457514912936,159.31971337412898L884.303596836986,12.185012131059684Q878.0234771339689,4.010862062000271,860.6346403474113,3.968293363333317Z" stroke="#222222" stroke-width="2.01724" fill="url(#jhpkw)"></path><path d="M234.02764402678733,424.7840982959118Q238.19802955032327,417.48729529734493,226.4194028929789,411.3076702273893L14.404123060780378,300.0744189681883Q2.625496403436005,293.8947938982327,2.663119518376684,306.51384500551956L3.3403355873089087,533.6567649366839Q3.3779587022495874,546.2758160439708,10.948576721117336,547.1331930052064L147.2197010607368,562.5659783074462Q154.79031907960456,563.4233552686818,158.9607046031405,556.1265522701149Z" stroke="#222222" stroke-width="2.01724" fill="url(#jhpkw)"></path><path d="M257.3977429070129,411.99466982149767Q247.26220962159852,419.30962471427733,242.99482132869835,426.7895606115409L166.18183205649527,561.4284067622847Q161.9144437635951,568.9083426595482,161.3754072465255,572.701933985788L151.67274993927262,640.9865778581037Q151.13371342220302,644.7801691843434,160.18426747216463,662.3980283777422L323.09424037147375,979.5194938589208Q332.1447944214354,997.1373530523197,365.7780880673316,997.1685518895785L971.1773736934641,997.7301309602377Q1004.8106673393604,997.7613297974965,1004.7930154025526,967.7411193835189L1004.475280540011,427.3773319319234Q1004.4576286032031,397.3571215179458,976.7333909395372,391.1397917849827L477.6971129935519,279.22785659164714Q449.972875329886,273.01052685868405,439.8373420444716,280.3254817514637Z" stroke="#222222" stroke-width="2.01724" fill="url(#jhpkw)"></path><path d="M1007.4318387138217,9.779680335440222Q1007.4068236337214,1.5900324224063007,1001.1705699605928,1.5653419417509764L888.918003844278,1.1209132899551386Q882.6817501711495,1.0962228092998143,888.9430189243782,9.310561202989053L1001.6458564824959,157.16865228939534Q1007.9071252357246,165.38299068308459,1007.8821101556244,157.1933427700507Z" stroke="#222222" stroke-width="2.01724" fill="url(#dvyjz)"></path><path d="M154.65389784985618,572.4779092947489Q155.19664339275826,568.7281880752763,147.51427858454738,567.853124584997L9.231712036751862,552.1019817599688Q1.5493472285409913,551.2269182696895,1.5469112521693813,557.0636414446899L1.5030636774804007,662.124658594697Q1.5006277011087907,667.9613817696975,8.64268294278918,666.749443304449L137.1996772930362,644.9345509299757Q144.34173253471658,643.7226124647271,144.88447807761867,639.9728912452546Z" stroke="#222222" stroke-width="2.01724" fill="url(#jhpkw)"></path><path d="M10.005147719136925,672.1908899241486Q2.8656487822609362,673.380868495967,2.882666909833609,689.5699820928759L3.1889932061417143,980.9740268372359Q3.206011333714387,997.1631404341448,19.293795790154523,997.205531568353L308.8739160060769,997.9685719841002Q324.9617004625171,998.0109631183084,315.99639681538025,980.5894798153729L154.62093116691742,667.0027803625342Q145.65562751978058,649.5812970595987,138.5161285829046,650.7712756314171Z" stroke="#222222" stroke-width="2.01724" fill="url(#jhpkw)"></path><path d="M26.334463451117237,179.128007374037Q26.299277626781794,187.44626548684454,35.49657238959519,182.5604315194013L201.04787812023613,94.61542010542348Q210.24517288304955,89.72958613798026,210.37216103647356,86.27576527928156L212.65794779810588,24.106989822704815Q212.7849359515299,20.653168964006102,203.49583885962792,20.674565677340492L36.29209120539261,21.059706517359484Q27.00299411349064,21.081103230693873,26.967808289155197,29.399361343501404Z" stroke="#222222" stroke-width="2.01724" fill="url(#iywep)"></path><path d="M293.01788309393385,22.194454237169207Q282.56679641258796,22.195438545097478,282.4966667352694,25.650791219595646L281.23433254353574,87.84713936056274Q281.1642028662172,91.30249203506092,288.60749183725227,97.16052023972206L422.58669331588356,202.6050279236228Q430.02998228691865,208.46305612828397,433.107909674548,199.14869094119635L488.51060265187704,31.4901175736197Q491.5885300395064,22.175752386532096,481.13744335816045,22.176736694460363Z" stroke="#222222" stroke-width="2.01724" fill="url(#bdxdd)"></path><path d="M246.42956978012063,138.51655794343006Q238.88865278363778,132.66532840194844,229.6029700325745,137.53034583046542L62.46068051343556,225.10065954377097Q53.17499776237228,229.96567697228795,53.17490095638369,232.53299098739342L53.17315844858908,278.7446432592922Q53.173061642600494,281.31195727439774,62.368544510806814,286.06484727302256L227.8872361385206,371.6168672482702Q237.08271900672693,376.36975724689506,244.85666755118046,370.81253530293895L384.7877413513444,270.78254031172975Q392.56168989579794,265.22531836777364,392.41895503667274,264.448548410964L389.8497275724198,250.46668918839038Q389.70699271329465,249.68991923158075,382.1660757168118,243.8386896900991Z" stroke="#222222" stroke-width="2.01724" fill="url(#bdxdd)"></path><path d="M592.5430553859512,43.149011083431674Q579.0737203291,43.1160375112303,575.9378593051571,52.55147847721352L519.492360874185,222.38941586491137Q516.3564998502421,231.8248568308946,516.4957769061043,232.60652509878344L519.0027639116237,246.67655392078248Q519.1420409674859,247.45822218867133,540.516249697464,252.2781767820925L925.2520068370713,339.03735946367334Q946.6262155670496,343.8573140570945,946.5824856663982,335.1848932193761L945.7953474546731,179.08131814044518Q945.7516175540217,170.40889730272679,940.8870577496268,164.07722788535332L853.3249812705193,50.107178372631104Q848.4604214661244,43.77550895525764,834.9910864092732,43.74253538305627Z" stroke="#222222" stroke-width="2.01724" fill="url(#bdxdd)"></path><path d="M202.8700521716237,429.27775651327966Q206.10041890760755,423.6256772144785,196.97673393058963,418.83896021812967L32.75040434426762,332.67805428385157Q23.626719367249724,327.8913372875028,23.655862106769263,337.66601224419526L24.180431418120975,513.6101614646601Q24.209574157640514,523.3848364213526,30.07374965915503,524.04895775981L135.6289086864163,536.003141852044Q141.49308418793083,536.6672631905014,144.72345092391464,531.0151838917003Z" stroke="#222222" stroke-width="2.01724" fill="url(#bdxdd)"></path><path d="M336.61747328661903,468.12855592247536Q328.76652296275086,473.7946956180742,325.4610182047103,479.5886290502343L265.96193255997997,583.8794308291169Q262.6564278019394,589.6733642612771,262.23889191121776,592.6118674670458L254.7232458782281,645.5049251708824Q254.30570998750648,648.4434283766511,261.3162390093967,662.0901634270233L387.50576140342196,907.7313943337222Q394.51629042531226,921.3781293840943,420.5685276590442,921.4022958995192L889.5087978662199,921.8372931771676Q915.5610350999518,921.8614596925925,915.5473619684948,898.6079046959969L915.3012456022683,480.04391475727823Q915.2875724708113,456.79035976068275,893.8124703192764,451.97443685795344L507.260631591649,365.28782460882695Q485.7855294401141,360.4719017060977,477.9345791162459,366.1380414016965Z" stroke="#222222" stroke-width="2.01724" fill="url(#iywep)"></path><path d="M998.0926411180847,20.20309708983377Q998.0732645203583,13.859423094137227,993.2426831966078,13.840297930059641L906.2922193691012,13.496044976663102Q901.4616380453508,13.476919812585516,906.3115959668276,19.839718972359634L993.6108385534095,134.37010384829378Q998.4607964748863,140.73290300806792,998.4414198771598,134.38922901237137Z" stroke="#222222" stroke-width="2.01724" fill="url(#bdxdd)"></path><path d="M135.63348782257737,580.3318189081178Q136.05389671235497,577.4272973409303,130.10316252001684,576.7494760759851L22.98994705793064,564.5486933069712Q17.03921286559251,563.8708720420261,17.037325966408712,568.3919783726659L17.003361781100306,649.771892324184Q17.001474881916508,654.2929986548238,22.533687083660816,653.3542351563167L122.11350671505835,636.4564921831883Q127.64571891680266,635.5177286846812,128.06612780658028,632.6132071174936Z" stroke="#222222" stroke-width="2.01724" fill="url(#bdxdd)"></path><path d="M36.2766539629659,712.2596450791137Q30.746421866408646,713.181398517313,30.759604051343164,725.7214319874506L30.9968833801645,951.4420344499281Q31.010065565099023,963.9820679200658,43.47160982053246,964.0149039514288L267.7794064183343,964.6059525159633Q280.24095067376777,964.6387885473263,273.29645632995704,951.1441656076263L148.2955581413643,708.2409526930275Q141.3510637975536,694.7463297533275,135.82083170099634,695.6680831915268Z" stroke="#222222" stroke-width="2.01724" fill="url(#iywep)"></path><path d="M49.73917885189503,150.96320253171368Q49.71429871690581,156.8450992509399,56.21776821226267,153.39029292080923L173.2802191286862,91.2037789784572Q179.7836886240431,87.74897264832653,179.87348280845956,85.30675249813712L181.48977812795624,41.34678979472791Q181.5795723123727,38.90456964453851,175.01118876758858,38.91969940563236L56.78028496147453,39.19203510532168Q50.2119014166904,39.207164866415525,50.18702128170118,45.089061585641744Z" stroke="#222222" stroke-width="2.01724" fill="url(#qucbg)"></path><path d="M320.4131882475809,41.80657866640559Q313.0231539844327,41.80727467721645,312.97356481403835,44.25057798474518L312.08095974693987,88.23003752026233Q312.0313705765455,90.67334082779107,317.29457068229544,94.81559229568902L412.03217258579434,169.37611871785222Q417.2953726915443,173.5183701857502,419.4717960193368,166.93211939951263L458.6474159196024,48.3796052472369Q460.823839247395,41.79335446099935,453.4338049842468,41.7940504718102Z" stroke="#222222" stroke-width="2.01724" fill="url(#qucbg)"></path><path d="M238.3739684676804,172.73654315149219Q233.0417349231025,168.59909906443147,226.4757656818787,172.03918587872658L108.28831933985033,233.96074853603824Q101.72235009862653,237.40083535033335,101.72228164645553,239.2162004998497L101.72104950737771,271.89277319114404Q101.72098105520672,273.7081383406604,108.22316934760013,277.06893908892175L225.26255861068154,337.56335255762633Q231.76474690307498,340.92415330588767,237.26175863545336,336.99460398475765L336.2079698182645,266.2627162044172Q341.7049815506429,262.33316688328716,341.60405276384375,261.7839075794051L339.78733460145986,251.89724010952762Q339.6864058146607,251.34798080564553,334.3541722700828,247.21053671858482Z" stroke="#222222" stroke-width="2.01724" fill="url(#soqxc)"></path><path d="M637.7435587015257,83.3566235530505Q628.2193005447525,83.33330771654697,626.0019119498638,90.00517200707904L586.088917241869,210.09872923665648Q583.8715286469803,216.77059352718857,583.9700123976442,217.3233164600511L585.7427199095935,227.27232925157682Q585.8412036602574,227.82505218443936,600.9550515957216,231.2332747624587L873.0043144340787,292.581281166807Q888.1181623695429,295.9895037448264,888.0872406602516,289.85717616117216L887.5306498930098,179.47527965539678Q887.4997281837186,173.34295207174256,884.0599649585434,168.86578569048632L822.1442269053915,88.27679082787385Q818.7044636802163,83.7996244466176,809.1802055234431,83.77630861011406Z" stroke="#222222" stroke-width="2.01724" fill="url(#soqxc)"></path><path d="M171.50915367826428,433.8007363338581Q173.79336790299791,429.80411273387165,167.34194838633871,426.41939268613254L51.21639708647348,365.49443182682825Q44.76497756981429,362.10971177908914,44.78558459855091,369.0214507248607L45.15651111581007,493.43275174874924Q45.17711814454669,500.3444906945208,49.323716407735624,500.8140953964747L123.9624851451365,509.2669800316457Q128.10908340832543,509.73658473359967,130.39329763305906,505.73996113361324Z" stroke="#222222" stroke-width="2.01724" fill="url(#bwplv)"></path><path d="M416.35412092790324,524.6287216680772Q410.80266071513734,528.6352874699854,408.4653158854824,532.7322170896093L366.39310895169444,606.4769502428393Q364.0557641220396,610.5738798624632,363.76052166232154,612.6517154058006L358.44615738739685,650.0527551858748Q358.1509149276788,652.1305907292124,363.1081075387625,661.7802896243866L452.3375745382694,835.474869737524Q457.2947671493531,845.1245686326984,475.71648076240564,845.1416569396329L807.3073257973515,845.4492464644557Q825.7290394104041,845.4663347713902,825.7193710464308,829.0235883466032L825.545340494911,533.0541527004374Q825.5356721309377,516.6114062756503,810.3504817729136,513.2060345334589L537.0170553284795,451.90934317401275Q521.8318649704554,448.5039714318213,516.2804047576894,452.5105372337295Z" stroke="#222222" stroke-width="2.01724" fill="url(#bwplv)"></path><path d="M988.6925042535025,30.694527759702574Q988.6788029298539,26.208872859708787,985.2630661187568,26.19534932649822L923.7798035190112,25.95192572870803Q920.3640667079143,25.938402195497464,923.7935048426598,30.43758062870181L985.5233912680815,111.42279242638006Q988.9528294028271,115.9219708595844,988.9391280791783,111.43631595959062Z" stroke="#222222" stroke-width="2.01724" fill="url(#qucbg)"></path><path d="M116.48896757401671,588.2369761264881Q116.78624155084958,586.1831692302272,112.57843705040864,585.703877217352L36.837956042471745,577.0766209855985Q32.6301515420308,576.5973289727233,32.62881730282252,579.7942339175842L32.604800997073475,637.3385229250802Q32.60346675786519,640.5354278699411,36.51533152068155,639.8716218342163L106.92889725137604,627.9231131911699Q110.84076201419239,627.2593071554451,111.13803599102525,625.2055002591842Z" stroke="#222222" stroke-width="2.01724" fill="url(#nhsbu)"></path><path d="M62.71958461082461,752.5898531712992Q58.80911999381348,753.241631278032,58.818441206171535,762.1087739810724L58.9862230286165,921.7173426358033Q58.99554424097455,930.5844853388439,67.8071866880478,930.6077039192879L226.4167507353663,931.0256383672809Q235.22839318243956,931.0488569477249,230.31789414001938,921.5067175575075L141.9289113764562,749.7482085335948Q137.01841233403601,740.2060691433775,133.10794771702487,740.8578472501101Z" stroke="#222222" stroke-width="2.01724" fill="url(#soqxc)"></path><rect x="-216.33346259765625" y="-32.782589794921876" width="432.6669251953125" height="60.9309804473877" rx="7.564649999999999" ry="7.564649999999999" fill="white" opacity="0.8" transform="translate(608.8554170816562, 661.032188087437)"></rect><text transform="translate(608.8554170816562, 661.032188087437)" text-anchor="middle" dominant-baseline="middle" text-multiplier="0.9" font-size="27.027">small terrestrial organisms that fly</text></g><defs><pattern id="ehjxq" patternUnits="userSpaceOnUse" width="30.258599999999998" height="30.258599999999998"><rect width="30.258599999999998" height="30.258599999999998" fill="#666666"></rect><path d="M 7.564649999999999,7.564649999999999l15.129299999999999,15.129299999999999M7.564649999999999,22.693949999999997l15.129299999999999,-15.129299999999999" fill="transparent" stroke="#222222" stroke-width="2" stroke-linecap="square" shape-rendering="auto"></path></pattern></defs><defs><pattern id="soqxc" patternUnits="userSpaceOnUse" width="30.258599999999998" height="30.258599999999998"><rect width="30.258599999999998" height="30.258599999999998" fill="#f7fc76"></rect><circle cx="15.129299999999999" cy="15.129299999999999" r="2.01724" fill="#c3c90c" stroke="#343434" stroke-width="0"></circle></pattern></defs><defs><pattern id="bwplv" patternUnits="userSpaceOnUse" width="30.258599999999998" height="30.258599999999998"><rect width="30.258599999999998" height="30.258599999999998" fill="#fcc964"></rect><circle cx="15.129299999999999" cy="15.129299999999999" r="3.02586" fill="#e59a04" stroke="#343434" stroke-width="0"></circle></pattern></defs><defs><pattern id="qucbg" patternUnits="userSpaceOnUse" width="30.258599999999998" height="30.258599999999998"><rect width="30.258599999999998" height="30.258599999999998" fill="#fca45d"></rect><circle cx="15.129299999999999" cy="15.129299999999999" r="4.03448" fill="#ce5f04" stroke="#343434" stroke-width="0"></circle></pattern></defs><defs><pattern id="nhsbu" patternUnits="userSpaceOnUse" width="30.258599999999998" height="30.258599999999998"><rect width="30.258599999999998" height="30.258599999999998" fill="#f4695a"></rect><circle cx="15.129299999999999" cy="15.129299999999999" r="5.0431" fill="#d11c08" stroke="#343434" stroke-width="0"></circle></pattern></defs><defs><pattern id="dvyjz" patternUnits="userSpaceOnUse" width="30.258599999999998" height="30.258599999999998"><rect width="30.258599999999998" height="30.258599999999998" fill="#316be0"></rect><path d="M 0 15.129299999999999 c 3.7823249999999997 -7.564649999999999 , 11.346974999999999 -7.564649999999999 , 15.129299999999999 0 c 3.7823249999999997 7.564649999999999 , 11.346974999999999 7.564649999999999 , 15.129299999999999 0 M -15.129299999999999 15.129299999999999 c 3.7823249999999997 7.564649999999999 , 11.346974999999999 7.564649999999999 , 15.129299999999999 0 M 30.258599999999998 15.129299999999999 c 3.7823249999999997 -7.564649999999999 , 11.346974999999999 -7.564649999999999 , 15.129299999999999 0" fill="transparent" stroke="#1d2ec6" stroke-width="2" stroke-linecap="square" shape-rendering="auto"></path></pattern></defs><defs><pattern id="jhpkw" patternUnits="userSpaceOnUse" width="60.517199999999995" height="60.517199999999995"><rect width="60.517199999999995" height="60.517199999999995" fill="#68c96a"></rect><path d="M 0 15.129299999999999 l 15.129299999999999 0 l 0 -15.129299999999999 M 45.387899999999995 60.517199999999995 l 0 -15.129299999999999 l 15.129299999999999 0 M 15.129299999999999 30.258599999999998 l 0 15.129299999999999 l 15.129299999999999 0 M 30.258599999999998 15.129299999999999 l 15.129299999999999 0 l 0 15.129299999999999" fill="transparent" stroke="#19841a" stroke-width="2" stroke-linecap="square" shape-rendering="auto"></path></pattern></defs><defs><pattern id="vfqpo" patternUnits="userSpaceOnUse" width="60.517199999999995" height="60.517199999999995"><rect width="60.517199999999995" height="60.517199999999995" fill="#51c1a7"></rect><path d="M 15.129299999999999,15.129299999999999l30.258599999999998,30.258599999999998M45.387899999999995,15.129299999999999l30.258599999999998,-30.258599999999998 M15.129299999999999,45.387899999999995l-30.258599999999998,30.258599999999998M45.387899999999995,75.64649999999999l30.258599999999998,-30.258599999999998 M-15.129299999999999,15.129299999999999l30.258599999999998,-30.258599999999998" fill="transparent" stroke="#11ad88" stroke-width="2" stroke-linecap="square" shape-rendering="auto"></path></pattern></defs><defs><pattern id="bdxdd" patternUnits="userSpaceOnUse" width="30.258599999999998" height="30.258599999999998"><rect width="30.258599999999998" height="30.258599999999998" fill="#cbaaf7"></rect><path d="M 0,15.129299999999999 l 30.258599999999998,0" stroke-width="2" shape-rendering="auto" stroke="#8845e0" stroke-linecap="square"></path></pattern></defs><defs><pattern id="iywep" patternUnits="userSpaceOnUse" width="30.258599999999998" height="30.258599999999998"><rect width="30.258599999999998" height="30.258599999999998" fill="#dfdee0"></rect><path d="M 5.0431,10.0862
                     l 5.0431,0
                     l 5.0431,10.0862
                     l 5.0431,-10.0862
                     l 5.0431,0" fill="transparent" stroke="#727272" stroke-width="2" stroke-linecap="square" shape-rendering="auto"></path></pattern></defs><rect x="64.38" y="1086.8" width="944.24" height="4.03448" fill="white"></rect><g transform="translate(32.19,1132.56)"><circle cx="63.03875" cy="32.175000000000004" r="53.625" width="107.25" height="107.25" fill="url(#ehjxq)"></circle><text transform="translate(63.03875, 107.25)" text-anchor="middle" dominant-baseline="middle" text-multiplier="0.7" font-size="21.020999999999997" font-family="'Google Sans', sans-serif" fill="white">drawers</text><circle cx="315.19375" cy="32.175000000000004" r="53.625" width="107.25" height="107.25" fill="url(#iywep)"></circle><text transform="translate(315.19375, 107.25)" text-anchor="middle" dominant-baseline="middle" text-multiplier="0.7" font-size="21.020999999999997" font-family="'Google Sans', sans-serif" fill="white">can fly</text><circle cx="441.27125" cy="32.175000000000004" r="53.625" width="107.25" height="107.25" fill="url(#bdxdd)"></circle><text transform="translate(441.27125, 107.25)" text-anchor="middle" dominant-baseline="middle" text-multiplier="0.7" font-size="21.020999999999997" font-family="'Google Sans', sans-serif" fill="white">can't fly</text><circle cx="693.4262500000001" cy="32.175000000000004" r="53.625" width="107.25" height="107.25" fill="url(#dvyjz)"></circle><text transform="translate(693.4262500000001, 107.25)" text-anchor="middle" dominant-baseline="middle" text-multiplier="0.7" font-size="21.020999999999997" font-family="'Google Sans', sans-serif" fill="white">aquatic</text><circle cx="819.5037500000001" cy="32.175000000000004" r="53.625" width="107.25" height="107.25" fill="url(#vfqpo)"></circle><text transform="translate(819.5037500000001, 107.25)" text-anchor="middle" dominant-baseline="middle" text-multiplier="0.7" font-size="21.020999999999997" font-family="'Google Sans', sans-serif" fill="white">semiaquatic</text><circle cx="945.5812500000001" cy="32.175000000000004" r="53.625" width="107.25" height="107.25" fill="url(#jhpkw)"></circle><text transform="translate(945.5812500000001, 107.25)" text-anchor="middle" dominant-baseline="middle" text-multiplier="0.7" font-size="21.020999999999997" font-family="'Google Sans', sans-serif" fill="white">terrestrial</text><circle cx="63.03875" cy="193.04999999999998" r="53.625" width="107.25" height="107.25" fill="url(#soqxc)"></circle><text transform="translate(63.03875, 268.125)" text-anchor="middle" dominant-baseline="middle" text-multiplier="0.7" font-size="21.020999999999997" font-family="'Google Sans', sans-serif" fill="white">tiny</text><circle cx="189.11625" cy="193.04999999999998" r="53.625" width="107.25" height="107.25" fill="url(#bwplv)"></circle><text transform="translate(189.11625, 268.125)" text-anchor="middle" dominant-baseline="middle" text-multiplier="0.7" font-size="21.020999999999997" font-family="'Google Sans', sans-serif" fill="white">small</text><circle cx="315.19375" cy="193.04999999999998" r="53.625" width="107.25" height="107.25" fill="url(#qucbg)"></circle><text transform="translate(315.19375, 268.125)" text-anchor="middle" dominant-baseline="middle" text-multiplier="0.7" font-size="21.020999999999997" font-family="'Google Sans', sans-serif" fill="white">big</text><circle cx="441.27125" cy="193.04999999999998" r="53.625" width="107.25" height="107.25" fill="url(#nhsbu)"></circle><text transform="translate(441.27125, 268.125)" text-anchor="middle" dominant-baseline="middle" text-multiplier="0.7" font-size="21.020999999999997" font-family="'Google Sans', sans-serif" fill="white">huge</text></g><text transform="translate(976.4299999999998, 1424.635)" text-anchor="middle" dominant-baseline="middle" text-multiplier="0.7" font-size="21.020999999999997" font-family="'Google Sans', sans-serif" fill="white">Find out more!</text><g transform="translate(912.05, 1269.05)"><svg viewBox="0 0 33 33" width="128" height="128" fill="#ffffff" shape-rendering="crispEdges" xmlns="http://www.w3.org/2000/svg" version="1.1"><path transform="matrix(1,0,0,1,0,0)" d="M31,32h1v1h-1v-1zM28,32h1v1h-1v-1zM24,32h2v1h-2v-1zM21,32h1v1h-1v-1zM19,32h1v1h-1v-1zM15,32h2v1h-2v-1zM8,32h1v1h-1v-1zM0,32h7v1h-7v-1zM26,31h2v1h-2v-1zM24,31h1v1h-1v-1zM21,31h2v1h-2v-1zM17,31h2v1h-2v-1zM14,31h1v1h-1v-1zM12,31h1v1h-1v-1zM8,31h2v1h-2v-1zM6,31h1v1h-1v-1zM0,31h1v1h-1v-1zM32,30h1v1h-1v-1zM27,30h4v1h-4v-1zM23,30h2v1h-2v-1zM21,30h1v1h-1v-1zM18,30h1v1h-1v-1zM16,30h1v1h-1v-1zM14,30h1v1h-1v-1zM10,30h3v1h-3v-1zM6,30h1v1h-1v-1zM2,30h3v1h-3v-1zM0,30h1v1h-1v-1zM26,29h3v1h-3v-1zM21,29h1v1h-1v-1zM16,29h1v1h-1v-1zM12,29h3v1h-3v-1zM8,29h3v1h-3v-1zM6,29h1v1h-1v-1zM2,29h3v1h-3v-1zM0,29h1v1h-1v-1zM24,28h5v1h-5v-1zM20,28h3v1h-3v-1zM17,28h1v1h-1v-1zM12,28h2v1h-2v-1zM9,28h1v1h-1v-1zM6,28h1v1h-1v-1zM2,28h3v1h-3v-1zM0,28h1v1h-1v-1zM28,27h1v1h-1v-1zM24,27h1v1h-1v-1zM20,27h3v1h-3v-1zM15,27h3v1h-3v-1zM11,27h1v1h-1v-1zM6,27h1v1h-1v-1zM0,27h1v1h-1v-1zM30,26h2v1h-2v-1zM28,26h1v1h-1v-1zM26,26h1v1h-1v-1zM24,26h1v1h-1v-1zM16,26h2v1h-2v-1zM13,26h2v1h-2v-1zM10,26h2v1h-2v-1zM8,26h1v1h-1v-1zM0,26h7v1h-7v-1zM32,25h1v1h-1v-1zM30,25h1v1h-1v-1zM28,25h1v1h-1v-1zM22,25h3v1h-3v-1zM19,25h2v1h-2v-1zM13,25h2v1h-2v-1zM11,25h1v1h-1v-1zM8,25h1v1h-1v-1zM20,24h9v1h-9v-1zM14,24h4v1h-4v-1zM10,24h2v1h-2v-1zM3,24h6v1h-6v-1zM0,24h1v1h-1v-1zM31,23h2v1h-2v-1zM29,23h1v1h-1v-1zM27,23h1v1h-1v-1zM21,23h2v1h-2v-1zM18,23h1v1h-1v-1zM15,23h1v1h-1v-1zM8,23h6v1h-6v-1zM4,23h2v1h-2v-1zM1,23h2v1h-2v-1zM32,22h1v1h-1v-1zM29,22h1v1h-1v-1zM26,22h2v1h-2v-1zM24,22h1v1h-1v-1zM19,22h1v1h-1v-1zM16,22h2v1h-2v-1zM11,22h4v1h-4v-1zM8,22h1v1h-1v-1zM6,22h1v1h-1v-1zM3,22h2v1h-2v-1zM0,22h2v1h-2v-1zM32,21h1v1h-1v-1zM30,21h1v1h-1v-1zM24,21h3v1h-3v-1zM22,21h1v1h-1v-1zM20,21h1v1h-1v-1zM16,21h1v1h-1v-1zM9,21h5v1h-5v-1zM7,21h1v1h-1v-1zM3,21h2v1h-2v-1zM31,20h1v1h-1v-1zM29,20h1v1h-1v-1zM27,20h1v1h-1v-1zM25,20h1v1h-1v-1zM23,20h1v1h-1v-1zM21,20h1v1h-1v-1zM18,20h1v1h-1v-1zM14,20h3v1h-3v-1zM11,20h2v1h-2v-1zM9,20h1v1h-1v-1zM5,20h3v1h-3v-1zM26,19h4v1h-4v-1zM20,19h5v1h-5v-1zM17,19h2v1h-2v-1zM13,19h1v1h-1v-1zM10,19h2v1h-2v-1zM7,19h1v1h-1v-1zM5,19h1v1h-1v-1zM0,19h1v1h-1v-1zM31,18h2v1h-2v-1zM29,18h1v1h-1v-1zM27,18h1v1h-1v-1zM25,18h1v1h-1v-1zM16,18h2v1h-2v-1zM13,18h1v1h-1v-1zM10,18h1v1h-1v-1zM5,18h3v1h-3v-1zM0,18h2v1h-2v-1zM29,17h2v1h-2v-1zM21,17h5v1h-5v-1zM16,17h1v1h-1v-1zM8,17h2v1h-2v-1zM2,17h4v1h-4v-1zM0,17h1v1h-1v-1zM32,16h1v1h-1v-1zM28,16h1v1h-1v-1zM24,16h3v1h-3v-1zM21,16h2v1h-2v-1zM19,16h1v1h-1v-1zM17,16h1v1h-1v-1zM13,16h2v1h-2v-1zM10,16h2v1h-2v-1zM6,16h3v1h-3v-1zM2,16h1v1h-1v-1zM0,16h1v1h-1v-1zM31,15h1v1h-1v-1zM28,15h2v1h-2v-1zM25,15h2v1h-2v-1zM21,15h2v1h-2v-1zM16,15h2v1h-2v-1zM12,15h3v1h-3v-1zM8,15h2v1h-2v-1zM2,15h3v1h-3v-1zM31,14h1v1h-1v-1zM29,14h1v1h-1v-1zM22,14h6v1h-6v-1zM12,14h1v1h-1v-1zM10,14h1v1h-1v-1zM6,14h3v1h-3v-1zM4,14h1v1h-1v-1zM1,14h1v1h-1v-1zM28,13h5v1h-5v-1zM26,13h1v1h-1v-1zM19,13h4v1h-4v-1zM16,13h1v1h-1v-1zM7,13h6v1h-6v-1zM5,13h1v1h-1v-1zM0,13h1v1h-1v-1zM32,12h1v1h-1v-1zM29,12h1v1h-1v-1zM23,12h4v1h-4v-1zM21,12h1v1h-1v-1zM15,12h3v1h-3v-1zM12,12h1v1h-1v-1zM3,12h5v1h-5v-1zM1,12h1v1h-1v-1zM31,11h2v1h-2v-1zM28,11h1v1h-1v-1zM26,11h1v1h-1v-1zM18,11h7v1h-7v-1zM16,11h1v1h-1v-1zM14,11h1v1h-1v-1zM8,11h1v1h-1v-1zM2,11h4v1h-4v-1zM0,11h1v1h-1v-1zM32,10h1v1h-1v-1zM29,10h1v1h-1v-1zM26,10h1v1h-1v-1zM24,10h1v1h-1v-1zM22,10h1v1h-1v-1zM18,10h3v1h-3v-1zM9,10h2v1h-2v-1zM6,10h1v1h-1v-1zM32,9h1v1h-1v-1zM29,9h1v1h-1v-1zM24,9h3v1h-3v-1zM20,9h2v1h-2v-1zM16,9h1v1h-1v-1zM10,9h2v1h-2v-1zM8,9h1v1h-1v-1zM0,9h2v1h-2v-1zM30,8h2v1h-2v-1zM26,8h3v1h-3v-1zM24,8h1v1h-1v-1zM20,8h2v1h-2v-1zM15,8h2v1h-2v-1zM10,8h1v1h-1v-1zM6,8h2v1h-2v-1zM3,8h1v1h-1v-1zM0,8h2v1h-2v-1zM21,7h3v1h-3v-1zM19,7h1v1h-1v-1zM15,7h3v1h-3v-1zM12,7h1v1h-1v-1zM8,7h2v1h-2v-1zM26,6h7v1h-7v-1zM24,6h1v1h-1v-1zM22,6h1v1h-1v-1zM20,6h1v1h-1v-1zM18,6h1v1h-1v-1zM16,6h1v1h-1v-1zM14,6h1v1h-1v-1zM12,6h1v1h-1v-1zM10,6h1v1h-1v-1zM8,6h1v1h-1v-1zM0,6h7v1h-7v-1zM32,5h1v1h-1v-1zM26,5h1v1h-1v-1zM24,5h1v1h-1v-1zM18,5h3v1h-3v-1zM15,5h1v1h-1v-1zM13,5h1v1h-1v-1zM11,5h1v1h-1v-1zM8,5h2v1h-2v-1zM6,5h1v1h-1v-1zM0,5h1v1h-1v-1zM32,4h1v1h-1v-1zM28,4h3v1h-3v-1zM26,4h1v1h-1v-1zM23,4h1v1h-1v-1zM14,4h3v1h-3v-1zM8,4h1v1h-1v-1zM6,4h1v1h-1v-1zM2,4h3v1h-3v-1zM0,4h1v1h-1v-1zM32,3h1v1h-1v-1zM28,3h3v1h-3v-1zM26,3h1v1h-1v-1zM22,3h1v1h-1v-1zM18,3h1v1h-1v-1zM14,3h3v1h-3v-1zM9,3h3v1h-3v-1zM6,3h1v1h-1v-1zM2,3h3v1h-3v-1zM0,3h1v1h-1v-1zM32,2h1v1h-1v-1zM28,2h3v1h-3v-1zM26,2h1v1h-1v-1zM17,2h2v1h-2v-1zM14,2h1v1h-1v-1zM8,2h5v1h-5v-1zM6,2h1v1h-1v-1zM2,2h3v1h-3v-1zM0,2h1v1h-1v-1zM32,1h1v1h-1v-1zM26,1h1v1h-1v-1zM23,1h2v1h-2v-1zM20,1h1v1h-1v-1zM18,1h1v1h-1v-1zM14,1h3v1h-3v-1zM11,1h2v1h-2v-1zM8,1h1v1h-1v-1zM6,1h1v1h-1v-1zM0,1h1v1h-1v-1zM26,0h7v1h-7v-1zM21,0h4v1h-4v-1zM17,0h3v1h-3v-1zM12,0h4v1h-4v-1zM9,0h1v1h-1v-1zM0,0h7v1h-7v-1z"></path></svg></g><text transform="translate(536.5, 35.75)" text-anchor="middle" dominant-baseline="middle" text-multiplier="1.44" font-size="43.243199999999995" font-family="'Google Sans', sans-serif" fill="white">The Victorian Cabinet</text></svg>